name 900006_13ik_lsw.mot
datacolumns 165
datarows 4
range 0.78333333 0.80833333
cursor 1.0 1.0 0.0
keys m_key
wrap
enforce_loops no
enforce_constraints no
calc_derivatives 0.008333
event_color 1.000000 0.000000 1.000000
endheader

                time	          calcn_r_tx	          calcn_r_ty	          calcn_r_tz	          calcn_r_r1	          calcn_r_r2	          calcn_r_r3	          calcn_l_tx	          calcn_l_ty	          calcn_l_tz	          calcn_l_r1	          calcn_l_r2	          calcn_l_r3	           pelvis_tz	           pelvis_tx	           pelvis_ty	         pelvis_tilt	         pelvis_list	     pelvis_rotation	       hip_flexion_r	     hip_adduction_r	      hip_rotation_r	        knee_angle_r	       ankle_angle_r	    subtalar_angle_r	         mtp_angle_r	       hip_flexion_l	     hip_adduction_l	      hip_rotation_l	        knee_angle_l	       ankle_angle_l	    subtalar_angle_l	         mtp_angle_l	    lumbar_extension	      lumbar_bending	     lumbar_rotation	     ground_force_px	     ground_force_py	     ground_force_pz	     ground_force_vx	     ground_force_vy	     ground_force_vz	     ground_force_px	     ground_force_py	     ground_force_pz	     ground_force_vx	     ground_force_vy	     ground_force_vz	     ground_torque_x	     ground_torque_y	     ground_torque_z	     ground_torque_x	     ground_torque_y	     ground_torque_z	           midhip_px	           midhip_py	           midhip_pz	            hip_r_px	            hip_r_py	            hip_r_pz	            hip_l_px	            hip_l_py	            hip_l_pz	           knee_r_px	           knee_r_py	           knee_r_pz	           knee_l_px	           knee_l_py	           knee_l_pz	          ankle_r_px	          ankle_r_py	          ankle_r_pz	          ankle_l_px	          ankle_l_py	          ankle_l_pz	          midasis_px	          midasis_py	          midasis_pz	           asis_r_px	           asis_r_py	           asis_r_pz	           asis_l_px	           asis_l_py	           asis_l_pz	           psis_r_px	           psis_r_py	           psis_r_pz	           psis_l_px	           psis_l_py	           psis_l_pz	     epicondLat_r_px	     epicondLat_r_py	     epicondLat_r_pz	     epicondLat_l_px	     epicondLat_l_py	     epicondLat_l_pz	     epicondMed_r_px	     epicondMed_r_py	     epicondMed_r_pz	     epicondMed_l_px	     epicondMed_l_py	     epicondMed_l_pz	   malleolusLat_r_px	   malleolusLat_r_py	   malleolusLat_r_pz	   malleolusLat_l_px	   malleolusLat_l_py	   malleolusLat_l_pz	  malleolusMedv_r_px	  malleolusMedv_r_py	  malleolusMedv_r_pz	  malleolusMedv_l_px	  malleolusMedv_l_py	  malleolusMedv_l_pz	     sternalnotch_px	     sternalnotch_py	     sternalnotch_pz	   xyphoidprocess_px	   xyphoidprocess_py	   xyphoidprocess_pz	             neck_px	             neck_py	             neck_pz	            toe_r_px	            toe_r_py	            toe_r_pz	            toe_l_px	            toe_l_py	            toe_l_pz	      thighwand_r_px	      thighwand_r_py	      thighwand_r_pz	      thighwand_l_px	      thighwand_l_py	      thighwand_l_pz	      upperleg1_r_px	      upperleg1_r_py	      upperleg1_r_pz	      upperleg1_l_px	      upperleg1_l_py	      upperleg1_l_pz	      upperleg2_r_px	      upperleg2_r_py	      upperleg2_r_pz	      upperleg2_l_px	      upperleg2_l_py	      upperleg2_l_pz	      shankwand_r_px	      shankwand_r_py	      shankwand_r_pz	      shankwand_l_px	      shankwand_l_py	      shankwand_l_pz	      lowerleg1_r_px	      lowerleg1_r_py	      lowerleg1_r_pz	      lowerleg1_l_px	      lowerleg1_l_py	      lowerleg1_l_pz	    subclavicle_r_px	    subclavicle_r_py	    subclavicle_r_pz	    subclavicle_l_px	    subclavicle_l_py	    subclavicle_l_pz	
          0.78333333	          1.96603560	          0.03653685	         -0.23214239	          3.12525076	         -4.28988832	         -2.69923552	          1.93198996	          0.10123068	         -0.33639712	         -2.51868806	         -3.04978011	        -18.65010710	         -0.27191757	          2.10465068	          0.83431439	          1.64010950	         -0.17600548	         -1.33134129	          1.47586085	          3.59590623	         -2.50650289	         -9.72079731	          3.93624761	          0.00000000	          0.00000000	         16.97161463	          2.43686892	         -1.04699500	        -46.58832344	          9.59478449	          0.00000000	          0.00000000	         -9.05198390	          2.08372812	         -0.17225256	          2.07549217	          0.00000000	         -0.22708217	         -7.90535913	        375.36455578	        -15.61458680	          1.66573009	          0.00000000	         -0.29100342	          0.00000000	         -0.00000000	          0.00000000	          0.00000000	          1.20508056	          0.00000000	          0.00000000	          0.00000000	          0.00000000	          2.06918572	          0.77334717	         -0.27601623	          2.06041492	          0.76973370	         -0.21937724	          2.07795668	          0.77696066	         -0.33265549	          2.01368967	          0.42748705	         -0.21531942	          2.14390623	          0.43234020	         -0.33605436	          2.01551604	          0.06649352	         -0.23507742	          1.98559774	          0.11265470	         -0.32516423	          2.10457317	          0.84495623	         -0.26681662	          2.10304532	          0.84398102	         -0.15524878	          2.10610074	          0.84593177	         -0.37838446	          1.92958298	          0.87608460	         -0.24258183	          1.93355686	          0.87417953	         -0.29590373	          2.04930586	          0.42085911	         -0.15562692	          2.15009206	          0.42090438	         -0.39488153	          2.03086684	          0.42651792	         -0.27560005	          2.16304746	          0.42636765	         -0.27591753	          2.00891849	          0.06479176	         -0.19820164	          1.97611617	          0.11612842	         -0.36024094	          2.01644879	          0.06347710	         -0.26855448	          1.98477896	          0.11535689	         -0.29153790	          2.11528630	          1.18946456	         -0.27467184	          2.11420763	          1.08752643	         -0.28173042	          2.01449440	          1.26943095	         -0.26755513	          2.09563619	          0.04704245	         -0.22482776	          2.05962719	          0.06711578	         -0.33407513	          2.16881121	          0.55966030	         -0.17890040	          2.22333337	          0.60054338	         -0.40503374	          2.11524322	          0.59810761	         -0.14348037	          2.18827765	          0.63815896	         -0.34052754	          2.10205547	          0.54178462	         -0.15000707	          2.19708183	          0.57993052	         -0.33321495	          2.14089423	          0.17677947	         -0.20036725	          2.01460951	          0.21061682	         -0.45268809	          2.06347200	          0.16605197	         -0.21938004	          2.01791882	          0.20203409	         -0.37309655	          2.11697913	          1.18699207	         -0.21885459	          2.11916105	          1.19166155	         -0.32422254	
          0.79166667	          1.96626552	          0.03598246	         -0.23229510	          3.04768611	         -4.40933631	         -2.68524944	          1.95929369	          0.09306545	         -0.33743226	         -2.22924817	         -3.06916373	        -15.54916178	         -0.27136791	          2.11295496	          0.83384087	          1.58373865	          0.05048447	         -1.38622595	          0.69289498	          3.39025230	         -2.43535587	         -9.34467381	          4.42993627	          0.00000000	          0.00000000	         17.73820199	          2.43128570	         -1.21692544	        -44.76693835	         10.17597073	          0.00000000	          0.00000000	         -9.10195957	          1.75718202	         -0.01962615	          2.08011571	          0.00000000	         -0.22714206	         -7.11490608	        379.80151808	        -15.61521355	          1.66843590	          0.00000000	         -0.29065036	         -0.00000000	          0.00000000	         -0.00000000	          0.00000000	          1.21200925	          0.00000000	          0.00000000	         -0.00000000	          0.00000000	          2.07762727	          0.77309758	         -0.27610034	          2.06886966	          0.76934859	         -0.21946812	          2.08638487	          0.77684651	         -0.33273283	          2.01789229	          0.42753890	         -0.21545227	          2.15479014	          0.43316643	         -0.33593008	          2.01569371	          0.06657318	         -0.23532665	          2.01222289	          0.10645692	         -0.32630470	          2.11310377	          0.84467941	         -0.26668772	          2.11161000	          0.84341466	         -0.15510552	          2.11459732	          0.84594474	         -0.37826998	          1.93852139	          0.87587614	         -0.24252063	          1.94178746	          0.87416246	         -0.29583558	          2.05265325	          0.42063294	         -0.15573306	          2.16274376	          0.42201568	         -0.39474697	          2.03491636	          0.42630160	         -0.27535922	          2.17416863	          0.42741519	         -0.27603803	          2.00910299	          0.06491232	         -0.19844766	          2.00244042	          0.10971616	         -0.36131859	          2.01662357	          0.06347337	         -0.26878024	          2.01116339	          0.10879665	         -0.29261429	          2.12418913	          1.18918501	         -0.27501868	          2.12293130	          1.08723706	         -0.28190431	          2.02356154	          1.26929944	         -0.26759767	          2.09564840	          0.04694175	         -0.22500751	          2.08849386	          0.06495245	         -0.33614155	          2.17419175	          0.55801204	         -0.17911473	          2.23344304	          0.60198770	         -0.40542256	          2.12113406	          0.59720359	         -0.14363001	          2.19840618	          0.63917689	         -0.34089909	          2.10743355	          0.54109354	         -0.15004891	          2.20745171	          0.58110373	         -0.33355531	          2.14202586	          0.17570000	         -0.20064883	          2.03635297	          0.20645537	         -0.45323387	          2.06463207	          0.16552451	         -0.21957071	          2.04006653	          0.19735881	         -0.37360561	          2.12604463	          1.18680403	         -0.21923008	          2.12791931	          1.19129222	         -0.32455690	
          0.80000000	          1.96641781	          0.03575016	         -0.23321614	          3.01415819	         -4.57262389	         -2.73219009	          1.98693555	          0.08547130	         -0.33827642	         -1.99319017	         -3.00824049	        -12.86882937	         -0.27110178	          2.12155523	          0.83329585	          1.50056092	          0.16959077	         -1.43115489	         -0.08816478	          3.33272523	         -2.42966053	         -8.97623256	          4.89269500	          0.00000000	          0.00000000	         18.44472607	          2.36419441	         -1.33084302	        -42.79836407	         10.26401979	          0.00000000	          0.00000000	         -9.10973299	          1.53425484	          0.10116644	          2.08448632	          0.00000000	         -0.22721896	         -6.03606839	        384.08646086	        -15.56340456	          1.67138953	          0.00000000	         -0.29033398	          0.00000000	         -0.00000000	          0.00000000	          0.00000000	          1.22635948	          0.00000000	          0.00000000	          0.00000000	          0.00000000	          2.08607975	          0.77271407	         -0.27621301	          2.07734569	          0.76886920	         -0.21958365	          2.09481363	          0.77655876	         -0.33284260	          2.02203693	          0.42763240	         -0.21562837	          2.16567981	          0.43358320	         -0.33582402	          2.01585468	          0.06663417	         -0.23559831	          2.03935430	          0.10049820	         -0.32759973	          2.12166023	          0.84426756	         -0.26664422	          2.12021444	          0.84277977	         -0.15503693	          2.12310587	          0.84575616	         -0.37825158	          1.94740880	          0.87556975	         -0.24244713	          1.95007137	          0.87403325	         -0.29575224	          2.05610844	          0.42039554	         -0.15586986	          2.17495782	          0.42297240	         -0.39463253	          2.03899047	          0.42605519	         -0.27511978	          2.18516730	          0.42826572	         -0.27587985	          2.00927611	          0.06501709	         -0.19871509	          2.02923701	          0.10353147	         -0.36253794	          2.01684041	          0.06327562	         -0.26900296	          2.03804591	          0.10243765	         -0.29383369	          2.13306713	          1.18879302	         -0.27541224	          2.13165878	          1.08683492	         -0.28211665	          2.03257035	          1.26903394	         -0.26764423	          2.09568487	          0.04687244	         -0.22519703	          2.11759605	          0.06295441	         -0.33826832	          2.17969553	          0.55637667	         -0.17928157	          2.24328884	          0.60307622	         -0.40576774	          2.12709366	          0.59629953	         -0.14380020	          2.20813325	          0.63994256	         -0.34125464	          2.11280532	          0.54032434	         -0.15009699	          2.21750595	          0.58202750	         -0.33379312	          2.14322081	          0.17459461	         -0.20096211	          2.05815869	          0.20235599	         -0.45385009	          2.06574544	          0.16482422	         -0.21986588	          2.06237350	          0.19275743	         -0.37419881	          2.13508810	          1.18650646	         -0.21961559	          2.13665026	          1.19080953	         -0.32497498	
          0.80833333	          1.96654553	          0.03538070	         -0.23442994	          3.01188384	         -4.83788324	         -2.65843351	          2.01518074	          0.07824701	         -0.33934720	         -1.70497627	         -2.90285780	        -10.24619828	         -0.27018431	          2.13027478	          0.83259623	          1.40451012	          0.36550746	         -1.49464631	         -0.83361359	          3.25072207	         -2.48292779	         -8.68334216	          5.53554084	          0.00000000	          0.00000000	         19.08416461	          2.30430683	         -1.46854399	        -40.64154023	         10.18439318	          0.00000000	          0.00000000	         -9.09675490	          1.30412630	          0.24256917	          2.08865527	          0.00000000	         -0.22730151	         -4.69386486	        388.12614922	        -15.45087091	          1.67453870	          0.00000000	         -0.29000595	         -0.00000000	          0.00000000	         -0.00000000	          0.00000000	          1.24914769	          0.00000000	          0.00000000	         -0.00000000	          0.00000000	          2.09455546	          0.77221808	         -0.27633457	          2.08585383	          0.76831145	         -0.21970452	          2.10325676	          0.77612446	         -0.33296470	          2.02606063	          0.42784169	         -0.21581987	          2.17666277	          0.43358606	         -0.33573579	          2.01601070	          0.06668672	         -0.23588630	          2.06693379	          0.09491210	         -0.32900830	          2.13024808	          0.84373948	         -0.26666534	          2.12885981	          0.84208710	         -0.15503149	          2.13163623	          0.84539274	         -0.37829921	          1.95623680	          0.87518287	         -0.24236161	          1.95842710	          0.87379243	         -0.29566085	          2.05966767	          0.42014983	         -0.15601977	          2.18674667	          0.42376053	         -0.39454517	          2.04305979	          0.42581694	         -0.27489722	          2.19613112	          0.42888668	         -0.27550957	          2.00944615	          0.06511515	         -0.19899849	          2.05646064	          0.09769560	         -0.36386184	          2.01709050	          0.06295713	         -0.26923005	          2.06545070	          0.09643992	         -0.29516904	          2.14193803	          1.18829516	         -0.27583249	          2.14040753	          1.08632753	         -0.28236403	          2.04154558	          1.26863911	         -0.26772511	          2.09575583	          0.04684554	         -0.22538426	          2.14689516	          0.06121278	         -0.34042828	          2.18532951	          0.55476225	         -0.17935715	          2.25285463	          0.60380891	         -0.40605988	          2.13314598	          0.59541206	         -0.14399783	          2.21740630	          0.64047072	         -0.34159915	          2.11814785	          0.53947517	         -0.15015630	          2.22723421	          0.58270361	         -0.33394712	          2.14447452	          0.17345908	         -0.20128969	          2.08004255	          0.19837125	         -0.45452608	          2.06680427	          0.16405462	         -0.22026255	          2.08490426	          0.18829115	         -0.37492116	          2.14412128	          1.18609710	         -0.21999129	          2.14537698	          1.19022781	         -0.32545597	
